<?xml version="1.0" encoding="UTF-8"?>
<svg width="15px" height="30px" viewBox="0 0 9 3" version="1.1" xmlns="http://www.w3.org/2000/svg" xmlns:xlink="http://www.w3.org/1999/xlink">
    <!-- Generator: Sketch 50.2 (55047) - http://www.bohemiancoding.com/sketch -->
    <title>Group 2</title>
    <desc>Created with Sketch.</desc>
    <defs></defs>
    <g id="Page-1" stroke="none" stroke-width="1" fill="none" fill-rule="evenodd" opacity="0.7">
        <g id="Desktop-HD" transform="translate(-980.000000, -61.000000)" fill="#FFFFFF">
            <g id="Group-2" transform="translate(980.000000, 61.000000)">
                <g id="Group-Copy-2">
                    <rect id="Rectangle-3" x="0" y="0" width="1" height="1"></rect>
                </g>
                <g id="Group-Copy-7" transform="translate(0.000000, 2.000000)">
                    <rect id="Rectangle-3" x="0" y="0" width="1" height="1"></rect>
                </g>
                <g id="Group-Copy-3" transform="translate(2.000000, 0.000000)">
                    <rect id="Rectangle-3" x="0" y="0" width="1" height="1"></rect>
                </g>
                <g id="Group-Copy-8" transform="translate(2.000000, 2.000000)">
                    <rect id="Rectangle-3" x="0" y="0" width="1" height="1"></rect>
                </g>
                <g id="Group-Copy-4" transform="translate(4.000000, 0.000000)">
                    <rect id="Rectangle-3" x="0" y="0" width="1" height="1"></rect>
                </g>
                <g id="Group-Copy-9" transform="translate(4.000000, 2.000000)">
                    <rect id="Rectangle-3" x="0" y="0" width="1" height="1"></rect>
                </g>
                <g id="Group-Copy-5" transform="translate(6.000000, 0.000000)">
                    <rect id="Rectangle-3" x="0" y="0" width="1" height="1"></rect>
                </g>
                <g id="Group-Copy-10" transform="translate(6.000000, 2.000000)">
                    <rect id="Rectangle-3" x="0" y="0" width="1" height="1"></rect>
                </g>
                <g id="Group-Copy-6" transform="translate(8.000000, 0.000000)">
                    <rect id="Rectangle-3" x="0" y="0" width="1" height="1"></rect>
                </g>
                <g id="Group-Copy-11" transform="translate(8.000000, 2.000000)">
                    <rect id="Rectangle-3" x="0" y="0" width="1" height="1"></rect>
                </g>
            </g>
        </g>
    </g>
</svg>
