<?xml version="1.0" encoding="UTF-8"?>
<svg width="372px" height="358px" viewBox="0 0 372 358" version="1.1" xmlns="http://www.w3.org/2000/svg" xmlns:xlink="http://www.w3.org/1999/xlink">
    <!-- Generator: Sketch 48.2 (47327) - http://www.bohemiancoding.com/sketch -->
    <title>clap</title>
    <desc>Created with Sketch.</desc>
    <defs></defs>
    <g id="Page-1" stroke="none" stroke-width="1" fill="none" fill-rule="evenodd">
        <g id="clap" transform="translate(0.000000, -53.000000)" fill="#838383" fill-rule="nonzero">
            <path d="M168.85,207.9 C176.12,203.55 182.51,199.75 188.85,195.9 C222.52,175.65 256.13,155.3 289.85,135.16 C306.7,125.1 327.27,133.08 332.3,151.47 C333.17,154.63 333.3,158 333.79,161.67 C349.47,159.83 361.67,164.98 367.59,180.47 C372.07,192.22 368.22,202.73 356.01,214.16 C366.79,220.54 372.84,229.66 371.92,242.49 C371,255.32 362.69,262.54 351.84,268.34 C353.27,269.34 354.05,269.86 354.84,270.34 C373.12,282.51 372.91,307.5 354.16,318.94 C324.89,336.8 295.43,354.38 266.05,372.07 L228.39,394.72 C161.25,435.13 75.67,393.51 65.89,315.67 C63.2138196,295.21484 66.6624799,274.425438 75.8,255.93 C93.4066667,219.716667 111.106667,183.55 128.9,147.43 C134.64,135.73 145.9,129.34 158.57,130.43 C170.901217,131.634048 181.195222,140.354472 184.41,152.32 C186.199197,158.965746 185.65926,166.023741 182.88,172.32 C178.59,182.6 174.44,192.95 170.26,203.32 C169.79,204.49 169.52,205.72 168.85,207.9 Z M172.38,392.76 C188.291299,392.946745 203.947969,388.757566 217.64,380.65 C259.906667,355.316667 302.13,329.916667 344.31,304.45 C350.68,300.61 352.51,294.3 349.07,288.8 C345.77,283.5 339.53,282.35 333.3,286.03 C325.7,290.51 318.15,295.08 310.59,299.63 C299.9,306.07 289.27,312.63 278.5,318.94 C270.97,323.35 262.68,320.14 260.55,312.27 C259.15,307.1 261.55,302.11 267.33,298.65 C293.99,282.58 320.72,266.65 347.26,250.35 C350.266909,248.43232 352.615297,245.640774 353.99,242.35 C355.6,238.2 353.79,234.14 349.99,231.44 C345.84,228.44 341.65,228.8 337.38,231.38 C318.433333,242.833333 299.466667,254.256667 280.48,265.65 C274.21,269.43 268.01,273.34 261.65,276.98 C257.720871,279.464003 252.672553,279.293479 248.92,276.55 C244.92,273.83 243.56,269.86 244.21,265.2 C244.86,260.54 248.06,258.11 251.76,255.88 C282.426667,237.46 313.073333,218.973333 343.7,200.42 C346.53,198.7 349.45,196.09 350.78,193.19 C352.7,189.02 351.52,184.6 347.7,181.5 C343.88,178.4 339.37,178.15 335.12,180.66 C324.36,187 313.72,193.52 303.02,199.96 C281.91,212.67 260.84,225.43 239.68,238.05 C233.38,241.8 226.47,240.15 223.14,234.5 C219.67,228.62 221.46,222.2 227.78,218.25 C232.58,215.25 237.46,212.39 242.31,209.47 C264.563333,196.036667 286.816667,182.616667 309.07,169.21 C316.37,164.79 318.07,157.65 313.29,152.08 C309.35,147.47 304.15,147.08 297.57,151.08 C253.756667,177.42 209.923333,203.726667 166.07,230 C162.89,231.9 158.45,233.16 154.9,232.66 C147.01,231.53 143.29,223.25 146.5,215.19 C153.07,198.65 159.8,182.19 166.5,165.68 C169.31,158.74 167.07,152.12 160.89,149.18 C154.71,146.24 148.02,148.8 144.63,155.46 C142.97,158.72 141.44,162.04 139.83,165.33 C123.93,197.74 108.2,230.24 92.1,262.55 C62.4,322.2 105.53,392.32 172.38,392.76 Z" id="Shape"></path>
            <path d="M72.87,369.48 C52.42,362.26 35.87,350.73 22.98,334.15 C6.38,312.77 -0.83,288.48 0.08,261.43 C1.39,222.64 2.22,183.82 3.23,145.01 C3.58,131.47 11.82,120.21 24.23,116.44 C43.34,110.64 62.07,124.44 62.78,144.75 C63.18,156.08 63.65,167.4 64.1,178.75 C64.1,179.67 64.31,180.59 64.59,183.02 C66.38,180.52 67.39,179.14 68.36,177.73 C93.6933333,140.783333 119.026667,103.843333 144.36,66.91 C156.22,49.69 179.48,49.01 191.36,65.4 C192.91,67.54 194.05,69.96 195.6,72.64 C209.04,64.2 222.23,63.87 234.08,75.45 C242.99,84.16 243.91,95.1 237.76,110.91 C240.14,111.41 242.54,111.75 244.83,112.42 C255.11,115.42 261.66,122.22 264.49,132.42 C264.89,133.86 264.1,136.55 262.96,137.32 C257.35,141.1 251.43,144.42 244.55,148.55 C245.74,146.38 246.43,145.31 246.94,144.16 C249.176803,139.259868 247.472404,133.460651 242.94,130.55 C238.364234,127.631799 232.32395,128.637075 228.94,132.88 C225.66,137.06 222.8,141.58 219.77,145.97 C213.92,154.47 208.22,163.09 202.17,171.46 C200.02,174.46 197.06,176.85 194.47,179.53 L193.26,178.71 C193.68,177.44 194.07,176.16 194.54,174.9 C197.89,165.85 198.41,156.65 195.16,147.53 C193.93,144.11 194.47,141.72 196.48,138.86 C205,126.74 213.28,114.44 221.7,102.24 C224.24,98.55 225.2,94.68 223.28,90.48 C219.67,82.57 209.59,82.05 204.28,89.65 C196.9,100.13 189.75,110.78 182.49,121.35 C181.55,122.71 180.55,124.01 179.91,124.89 L157.17,117.39 C162.91,109.01 168.82,100.39 174.72,91.77 C175.909801,90.1771082 176.992196,88.5067453 177.96,86.77 C180.360005,81.9567188 178.81407,76.1099095 174.348702,73.1118786 C169.883334,70.1138478 163.886447,70.8964354 160.34,74.94 C159.082693,76.4938861 157.917368,78.1199974 156.85,79.81 C128.33,121.396667 99.8066667,163.01 71.28,204.65 C67.83,209.7 63.61,212.37 57.43,211.33 C51.49,210.33 47.72,205.6 47.37,198.27 C46.5433333,180.936667 45.8066667,163.626667 45.16,146.34 C44.85,138.14 40.16,132.82 32.98,132.82 C25.8,132.82 21.13,138.09 20.91,146.38 C19.86,186.02 18.53,225.66 17.78,265.3 C17.16,297.68 30.7,323.14 56.86,342.11 C59.1333921,343.911948 60.99504,346.17934 62.32,348.76 C65.9,355.32 69.12,362.06 72.87,369.48 Z" id="Shape"></path>
        </g>
    </g>
</svg>